Coordinates
version=1
nRows=11
nColumns=40
inDegrees=yes
endheader
time	pelvis_tilt	pelvis_list	pelvis_rotation	pelvis_tx	pelvis_ty	pelvis_tz	hip_flexion_r	hip_adduction_r	hip_rotation_r	knee_angle_r	knee_angle_r_beta	ankle_angle_r	subtalar_angle_r	mtp_angle_r	hip_flexion_l	hip_adduction_l	hip_rotation_l	knee_angle_l	knee_angle_l_beta	ankle_angle_l	subtalar_angle_l	mtp_angle_l	lumbar_extension	lumbar_bending	lumbar_rotation	arm_flex_r	arm_add_r	arm_rot_r	elbow_flex_r	pro_sup_r	wrist_flex_r	wrist_dev_r	arm_flex_l	arm_add_l	arm_rot_l	elbow_flex_l	pro_sup_l	wrist_flex_l	wrist_dev_l
      1.50000000	    -18.39243072	      0.23050997	      1.07094468	      0.99010307	      1.05979161	     -0.35424929	     47.34577757	     -0.85089288	     -3.14630173	     28.45395752	      0.49661524	     -1.03490009	      0.00000000	      0.00000000	     -6.27000283	      5.48504357	      7.85694478	     28.91649286	      0.50468801	    -31.51253094	      0.00000000	      0.00000000	      9.03487641	      2.73483385	    -13.63372270	    -51.54337790	    -21.69797063	    -14.61771670	    110.86617703	     59.83823774	      0.00000000	      0.00000000	    -29.55969168	    -14.73403874	     -6.07373774	    137.67276433	     55.92535257	      0.00000000	      0.00000000
      1.51000000	    -17.78916417	      0.26731170	      0.96174302	      0.98953463	      1.05906351	     -0.35395107	     45.32929778	     -0.04223766	     -2.15412751	     23.47717172	      0.40975395	     -1.10409532	      0.00000000	      0.00000000	     -5.84063220	      5.76836643	      8.60476052	     34.39148043	      0.60024457	    -30.43290193	      0.00000000	      0.00000000	      8.13648897	      2.82582630	    -13.23584955	    -51.24280806	    -21.52810675	    -14.87599239	    111.58128384	     59.73620516	      0.00000000	      0.00000000	    -29.44600693	    -14.97095023	     -5.31122346	    136.85926450	     55.74883822	      0.00000000	      0.00000000
      1.52000000	    -17.44563314	      0.67670262	     -0.20434321	      0.99061294	      1.05672342	     -0.35325926	     44.54427495	      0.70617708	     -2.45218648	     21.32169400	      0.37213376	     -0.83866047	      0.00000000	      0.00000000	     -5.86225699	      6.72980253	      8.91519518	     38.17018360	      0.66619538	    -30.41778367	      0.00000000	      0.00000000	      7.64580610	      2.85582080	    -12.08571367	    -50.94406120	    -21.71763678	    -15.00558931	    111.77674171	     59.70553222	      0.00000000	      0.00000000	    -30.52761523	    -14.93325488	     -4.88836024	    135.95778360	     55.66086602	      0.00000000	      0.00000000
      1.53000000	    -16.64770396	      0.15311648	      0.45111866	      0.98815102	      1.05453598	     -0.35342100	     42.11602919	      1.38405588	     -0.87850912	     17.44003896	      0.30438610	     -0.84467985	      0.00000000	      0.00000000	     -3.97273178	      5.66393884	      7.40533159	     46.41322383	      0.81006357	    -29.20266938	      0.00000000	      0.00000000	      6.35047000	      3.47860828	    -12.21594493	    -49.81278788	    -21.49093309	    -14.85757405	    112.31091521	     59.66360787	      0.00000000	      0.00000000	    -29.51549760	    -15.46239438	     -4.11734161	    134.33234077	     55.48013427	      0.00000000	      0.00000000
      1.54000000	    -16.26454673	     -0.61718453	      0.23567577	      0.98746008	      1.05054902	     -0.35275961	     40.48617063	      2.57369419	     -0.91138624	     15.07487220	      0.26310615	     -1.20524731	      0.00000000	      0.00000000	     -2.33609794	      4.39660158	      6.08507218	     53.21820490	      0.92883290	    -27.48024559	      0.00000000	      0.00000000	      5.74731717	      4.60280861	    -11.57801849	    -48.99194113	    -21.60145736	    -14.92074992	    112.55974180	     59.61533447	      0.00000000	      0.00000000	    -29.60026086	    -15.59397030	     -3.35431924	    132.85435853	     55.33115108	      0.00000000	      0.00000000
      1.55000000	    -15.72925838	     -0.33264296	     -0.51563089	      0.98767496	      1.04572672	     -0.35142320	     39.15549968	      2.97305612	     -1.76124665	     14.43749058	      0.25198175	     -1.15546187	      0.00000000	      0.00000000	     -1.29548305	      4.52834985	      5.25917659	     58.65475263	      1.02371856	    -27.13686657	      0.00000000	      0.00000000	      4.96972636	      4.43491053	    -10.34711631	    -48.21574401	    -21.88055759	    -14.88103800	    112.52458011	     59.59489441	      0.00000000	      0.00000000	    -30.44928183	    -15.58802038	     -2.88726854	    131.24490759	     55.25747257	      0.00000000	      0.00000000
      1.56000000	    -15.89731617	     -1.85447335	      0.12136830	      0.98551580	      1.03865548	     -0.35120258	     38.49680798	      4.06103506	     -3.68251937	     14.27285414	      0.24910830	     -2.38407477	      0.00000000	      0.00000000	      1.72471814	      1.90917506	      4.41178128	     66.59735372	      1.16234310	    -22.87077808	      0.00000000	      0.00000000	      5.02980442	      6.19602915	    -10.20656424	    -47.23917222	    -22.19762995	    -14.78862267	    112.72457725	     59.53502203	      0.00000000	      0.00000000	    -30.19445142	    -15.88047600	     -1.85213886	    129.30301947	     55.21894451	      0.00000000	      0.00000000
      1.57000000	    -15.15669992	     -1.06486641	     -0.35792625	      0.98519248	      1.03220158	     -0.35060307	     36.77149046	      3.62291001	     -4.73225075	     14.90442411	      0.26013127	     -3.11336206	      0.00000000	      0.00000000	      3.06875017	      2.34521322	      3.54703084	     71.96721172	      1.25606480	    -22.73083295	      0.00000000	      0.00000000	      3.91594285	      5.46765328	     -8.82817909	    -46.17201278	    -22.44290431	    -14.61853168	    112.45320317	     59.51715640	      0.00000000	      0.00000000	    -31.02727898	    -15.98379988	     -1.52111297	    127.34773535	     55.17361613	      0.00000000	      0.00000000
      1.58000000	    -14.46068334	     -1.26914124	      0.11295163	      0.98173923	      1.02522582	     -0.35048319	     35.82026359	      3.43253918	     -6.16987480	     17.48761859	      0.30521652	     -4.93476299	      0.00000000	      0.00000000	      5.29666744	      1.27097968	      3.20205302	     78.61351803	      1.37206473	    -20.21588210	      0.00000000	      0.00000000	      2.74372895	      5.68005286	     -8.22579481	    -43.83357953	    -22.60387859	    -14.02275060	    111.90434553	     59.46059168	      0.00000000	      0.00000000	    -30.04483318	    -16.54045923	     -1.02138648	    124.61059506	     55.13911585	      0.00000000	      0.00000000
      1.59000000	    -15.07538972	     -2.51152866	      0.78518314	      0.97965658	      1.01528576	     -0.35190331	     37.23825509	      3.45368942	    -11.20988766	     23.11964577	      0.40351394	     -4.64495687	      0.00000000	      0.00000000	      8.80515270	     -0.61419320	      3.57409171	     85.18079753	      1.48668538	    -13.85891012	      0.00000000	      0.00000000	      3.55100346	      7.28459262	     -7.88635946	    -42.82060948	    -23.52017470	    -13.70958508	    111.33902644	     59.32315903	      0.00000000	      0.00000000	    -30.19283333	    -16.51370636	      0.19342754	    121.61201479	     55.35393355	      0.00000000	      0.00000000
      1.60000000	    -14.33916284	     -2.54624335	      0.57166517	      0.97595847	      1.00862130	     -0.35201652	     35.90984251	      3.68221235	    -10.95862103	     25.64919282	      0.44766287	     -3.82199327	      0.00000000	      0.00000000	     11.25275999	     -0.84020231	      3.73690583	     90.51732989	      1.57982544	    -13.42831038	      0.00000000	      0.00000000	      1.87578832	      7.56479519	     -6.26508923	    -40.80726675	    -23.81232744	    -13.43818523	    110.39248744	     59.24437317	      0.00000000	      0.00000000	    -30.28035490	    -16.53341672	      0.55978526	    119.03461242	     55.30741799	      0.00000000	      0.00000000
